<svg width="500" height="400" viewBox="0 0 500 400" fill="none" xmlns="http://www.w3.org/2000/svg">
  <rect x="100" y="50" width="300" height="200" rx="10" fill="#E0E0E0"/>
  <rect x="120" y="80" width="260" height="140" fill="#263238"/>
  <path d="M150 100L180 120L150 140" stroke="#4CAF50" stroke-width="3"/>
  <rect x="200" y="110" width="150" height="10" rx="2" fill="#4CAF50"/>
  <rect x="200" y="130" width="120" height="10" rx="2" fill="#FFFFFF"/>
  <rect x="200" y="150" width="140" height="10" rx="2" fill="#FFFFFF"/>
  <circle cx="400" cy="50" r="20" fill="#4CAF50"/>
  <rect x="120" y="240" width="50" height="20" rx="5" fill="#4CAF50"/>
  <rect x="180" y="240" width="50" height="20" rx="5" fill="#263238"/>
  <rect x="240" y="240" width="50" height="20" rx="5" fill="#263238"/>
  <path d="M450 150C450 150 430 180 400 200C370 220 350 230 350 230" stroke="#E0E0E0" stroke-width="2"/>
  <rect x="350" y="230" width="30" height="30" rx="5" fill="#E0E0E0"/>
  <circle cx="365" cy="245" r="5" fill="#263238"/>
  <path d="M100 300C100 300 120 320 150 330C180 340 200 340 200 340" stroke="#E0E0E0" stroke-width="2"/>
  <rect x="70" y="270" width="30" height="30" rx="5" fill="#E0E0E0"/>
  <circle cx="85" cy="285" r="5" fill="#263238"/>
  <rect x="350" y="100" width="100" height="150" rx="10" fill="#F5F5F5"/>
  <rect x="370" y="120" width="60" height="  width="100" height="150" rx="10" fill="#F5F5F5"/>
  <rect x="370" y="120" width="60" height="80" fill="#263238"/>
  <rect x="380" y="130" width="40" height="5" rx="2" fill="#FFFFFF"/>
  <rect x="380" y="140" width="40" height="5" rx="2" fill="#FFFFFF"/>
  <rect x="380" y="150" width="30" height="5" rx="2" fill="#FFFFFF"/>
</svg>

