<svg width="80" height="80" viewBox="0 0 80 80" fill="none" xmlns="http://www.w3.org/2000/svg">
  <circle cx="40" cy="40" r="40" fill="#E8F5E9"/>
  <path d="M30 30C30 27.2386 32.2386 25 35 25H45C47.7614 25 50 27.2386 50 30V50C50 52.7614 47.7614 55 45 55H35C32.2386 55 30 52.7614 30 50V30Z" fill="#4CAF50"/>
  <circle cx="40" cy="35" r="5" fill="#FFFFFF"/>
  <path d="M30 45C30 45 33 40 40 40C47 40 50 45 50 45V50C50 52.7614 47.7614 55 45 55H35C32.2386 55 30 52.7614 30 50V45Z" fill="#263238"/>
</svg>

